<?xml version="1.0" standalone="no"?>
<!DOCTYPE svg PUBLIC "-//W3C//DTD SVG 20010904//EN"
 "http://www.w3.org/TR/2001/REC-SVG-20010904/DTD/svg10.dtd">
<svg version="1.0" xmlns="http://www.w3.org/2000/svg"
 width="259.000000pt" height="194.000000pt" viewBox="0 0 259.000000 194.000000"
 preserveAspectRatio="xMidYMid meet">

<g transform="translate(0.000000,194.000000) scale(0.100000,-0.100000)"
fill="#000000" stroke="none">
<path d="M1370 1242 c0 -4 19 -27 43 -50 l43 -42 108 0 c106 0 108 -1 137 -29
36 -37 38 -79 5 -118 l-24 -28 -161 -3 -161 -3 0 -140 0 -140 48 3 47 3 3 93
3 92 115 0 c125 0 150 7 195 57 39 42 50 68 51 122 0 89 -51 156 -137 180 -46
12 -315 15 -315 3z"/>
<path d="M906 971 c-75 -149 -136 -273 -136 -276 0 -3 22 -5 50 -5 l50 0 86
172 86 173 39 -78 39 -77 53 0 53 0 -89 178 c-49 97 -91 179 -93 181 -1 2 -64
-119 -138 -268z"/>
<path d="M1172 782 c43 -98 37 -92 96 -92 29 0 52 3 50 8 -39 90 -40 91 -96
92 -30 0 -52 -3 -50 -8z"/>
</g>
</svg>
